<?xml version="1.0" standalone="no"?>
<!DOCTYPE svg PUBLIC "-//W3C//DTD SVG 20010904//EN"
 "http://www.w3.org/TR/2001/REC-SVG-20010904/DTD/svg10.dtd">
<svg version="1.0" xmlns="http://www.w3.org/2000/svg"
 width="614.000000pt" height="614.000000pt" viewBox="0 0 614.000000 614.000000"
 preserveAspectRatio="xMidYMid meet">
<metadata>
Created by potrace 1.14, written by Peter Selinger 2001-2017
</metadata>
<g transform="translate(0.000000,614.000000) scale(0.100000,-0.100000)"
fill="#000000" stroke="none">
<path d="M1830 5366 c-3 -2 -30 -7 -60 -11 -30 -4 -63 -11 -72 -16 -9 -5 -29
-9 -45 -9 -15 0 -57 -14 -91 -30 -35 -17 -68 -30 -74 -30 -5 0 -29 -13 -53
-30 -24 -16 -48 -30 -53 -30 -33 0 -282 -212 -282 -241 0 -4 -14 -23 -32 -41
-44 -45 -168 -311 -182 -390 -7 -39 -13 -46 -53 -63 -55 -23 -163 -108 -219
-172 -78 -90 -174 -281 -146 -291 8 -2 7 -8 -3 -19 -14 -13 -18 -42 -18 -118
0 -56 47 -190 119 -343 19 -40 34 -78 34 -85 0 -7 4 -17 10 -23 13 -13 18
-123 6 -121 -6 1 -15 -18 -21 -43 -6 -25 -14 -52 -17 -60 -4 -8 -11 -43 -17
-76 -11 -60 -74 -194 -130 -279 -15 -22 -37 -74 -50 -115 -13 -41 -32 -94 -42
-117 -11 -23 -19 -48 -19 -56 0 -8 -9 -40 -20 -73 -31 -88 -86 -326 -100 -431
-14 -102 -8 -434 9 -493 5 -19 16 -60 24 -90 38 -143 69 -209 159 -342 81
-119 157 -189 306 -281 100 -63 83 -57 225 -78 82 -12 174 -7 211 13 24 12
161 114 191 142 18 17 33 18 178 13 181 -7 301 4 388 34 l60 21 82 -23 c69
-19 110 -23 262 -25 99 -1 209 1 245 6 l65 8 57 -63 c84 -92 131 -110 283
-110 110 0 126 3 196 31 89 36 215 120 279 187 44 45 48 47 102 47 114 0 224
35 433 136 160 78 245 125 310 172 28 20 66 46 85 59 68 45 207 175 302 283
76 86 138 163 138 171 0 3 14 24 31 45 17 22 49 74 70 117 22 42 44 77 50 77
6 0 25 -14 42 -32 83 -84 258 -173 388 -199 71 -14 195 -7 265 15 71 22 150
82 174 132 40 81 17 258 -44 338 -60 79 -198 206 -224 206 -4 0 -13 9 -19 19
-7 10 -46 38 -88 61 -56 31 -83 53 -102 83 -15 23 -31 47 -38 52 -13 11 -62
75 -86 111 -8 13 -31 40 -49 61 -19 20 -71 83 -116 139 -81 102 -118 142 -316
344 -157 159 -273 244 -436 319 -158 72 -413 144 -568 161 -222 24 -374 62
-451 113 -26 18 -73 58 -105 90 -62 64 -110 163 -150 307 -76 275 -113 363
-214 510 -75 111 -208 238 -266 255 -13 4 -30 13 -38 20 -69 57 -230 114 -395
140 -79 13 -266 20 -275 11z"/>
</g>
</svg>
